<?xml version="1.0" encoding="UTF-8" standalone="no"?>
<svg
   xmlns:dc="http://purl.org/dc/elements/1.1/"
   xmlns:cc="http://creativecommons.org/ns#"
   xmlns:rdf="http://www.w3.org/1999/02/22-rdf-syntax-ns#"
   xmlns:svg="http://www.w3.org/2000/svg"
   xmlns="http://www.w3.org/2000/svg"
   xmlns:sodipodi="http://sodipodi.sourceforge.net/DTD/sodipodi-0.dtd"
   xmlns:inkscape="http://www.inkscape.org/namespaces/inkscape"
   id="svg8"
   version="1.1"
   viewBox="0 0 132.29166 132.29167"
   height="500"
   width="500"
   sodipodi:docname="works.svg"
   inkscape:version="0.92.4 5da689c313, 2019-01-14">
  <sodipodi:namedview
     pagecolor="#ffffff"
     bordercolor="#666666"
     borderopacity="1"
     objecttolerance="10"
     gridtolerance="10"
     guidetolerance="10"
     inkscape:pageopacity="0"
     inkscape:pageshadow="2"
     inkscape:window-width="1888"
     inkscape:window-height="1011"
     id="namedview380"
     showgrid="true"
     inkscape:zoom="1.3350176"
     inkscape:cx="89.141777"
     inkscape:cy="360.80386"
     inkscape:window-x="14"
     inkscape:window-y="30"
     inkscape:window-maximized="0"
     inkscape:current-layer="layer1"
     inkscape:pagecheckerboard="true" />
  <defs
     id="defs2" />
  <metadata
     id="metadata5">
    <rdf:RDF>
      <cc:Work
         rdf:about="">
        <dc:format>image/svg+xml</dc:format>
        <dc:type
           rdf:resource="http://purl.org/dc/dcmitype/StillImage" />
        <dc:title />
      </cc:Work>
    </rdf:RDF>
  </metadata>
  <g
     transform="translate(0,-164.70832)"
     id="layer1"
     style="fill:#000000">
    <path
       id="path16"
       d="M 249.99219,120 7.0332031,120.12305 C 0.03317784,132.24804 -0.00195313,158.8418 -0.00195313,158.8418 7.8945761,199.63847 42.383047,265.16386 54.888672,280.03906 c 20.81794,24.7626 66.013218,55.26572 81.794918,63.26758 12.30864,6.24091 34.10352,10.0918 34.10352,10.0918 -5.71427,16.42858 -4.20703,38.32422 -4.20703,38.32422 h 83.41211 83.41015 c 0,0 1.50726,-21.89564 -4.20703,-38.32422 0,0 21.79488,-3.85089 34.10352,-10.0918 15.78172,-8.00186 60.97698,-38.50498 81.79492,-63.26758 12.50563,-14.8752 46.9941,-80.40059 54.89063,-121.19726 0,0 -0.0351,-26.59376 -7.03516,-38.71875 z"
       style="fill:#fffffe;stroke:none;stroke-width:1.08253169px;stroke-linecap:butt;stroke-linejoin:miter;stroke-opacity:1;fill-opacity:1"
       inkscape:connector-curvature="0"
       transform="matrix(0.26458333,0,0,0.26458333,0,164.70832)" />
  </g>
</svg>
